<svg xmlns="http://www.w3.org/2000/svg" width="99" height="24" viewBox="0 0 99 24">
    <g fill="#FFF" fill-rule="evenodd">
        <path d="M22.734 20.95c0 .24-.192.434-.433.434h-.868a.433.433 0 0 1-.433-.433v-9.084c0-.293.248-.434.41-.434h5.229c.238 0 .432.192.432.432v.866a.433.433 0 0 1-.432.432h-3.816a.087.087 0 0 0-.089.085v2.21c0 .047.039.085.087.085h3.165c.24 0 .434.192.434.432v.867a.432.432 0 0 1-.434.432H22.82a.087.087 0 0 0-.087.087v3.59zm7.155-9.518a.433.433 0 0 0-.433-.432l-.868.108c-.327.04-.433.194-.433.432 0 0-.006 8.086 0 8.113-.006 1.13.929 1.736 1.734 1.731.805-.004.436.005.436.005a.437.437 0 0 0 .431-.437v-.97c0-.19-.155-.329-.32-.329h-.222a.316.316 0 0 1-.325-.309v-7.912zm2.385.433a.867.867 0 0 1 1.734 0 .867.867 0 0 1-1.734 0zm.433 1.947h.868c.24 0 .433.152.433.435v6.703c0 .24-.192.434-.433.434h-.868a.434.434 0 0 1-.433-.434v-6.703c0-.24.116-.434.433-.434zm3.038 2.342a.427.427 0 0 0-.002.039v7.138c0 .24.194.433.433.433h.868a.432.432 0 0 0 .433-.433v-2.05c.401.204.846.32 1.302.32h.215a2.598 2.598 0 0 0 2.602-2.596v-2.813a2.6 2.6 0 0 0-2.601-2.596h-.65a2.597 2.597 0 0 0-2.602 2.594v-.3c0 .085 0 .173.002.264zm1.732.036c0-.596.486-1.08 1.084-1.08h.217c.599 0 1.084.487 1.084 1.08v2.817c0 .596-.485 1.08-1.084 1.08h-.217a1.084 1.084 0 0 1-1.084-1.08V16.19zm5.639-.036a.427.427 0 0 0-.002.039v7.138c0 .24.194.433.434.433h.867a.432.432 0 0 0 .434-.433v-2.05c.4.204.846.32 1.302.32h.214a2.598 2.598 0 0 0 2.603-2.596v-2.813a2.6 2.6 0 0 0-2.602-2.596h-.65a2.597 2.597 0 0 0-2.602 2.594v-.3c0 .085 0 .173.002.264zm1.733.036c0-.596.485-1.08 1.084-1.08h.216c.6 0 1.085.487 1.085 1.08v2.817c0 .596-.486 1.08-1.085 1.08h-.216a1.084 1.084 0 0 1-1.084-1.08V16.19zm5.637-4.325a.867.867 0 0 1 1.734 0 .867.867 0 0 1-1.734 0zm.433 1.947h.868c.24 0 .433.152.433.435v6.703c0 .24-.192.434-.433.434h-.868a.434.434 0 0 1-.433-.434v-6.703c0-.24.136-.434.433-.434zm3.469 7.572h.868a.431.431 0 0 0 .433-.434v-4.758c0-.597.485-1.081 1.084-1.081h.217c.598 0 1.084.485 1.084 1.08v4.768c0 .239.193.432.432.431l.869-.004a.434.434 0 0 0 .433-.434v-4.76a2.599 2.599 0 0 0-2.601-2.596h-.65c-.404 0-.785.091-1.125.254a.43.43 0 0 0-.176-.037h-.868a.433.433 0 0 0-.433.434v6.703a.433.433 0 0 0 .433.434zm13.013-5.43l-.004.238a2.597 2.597 0 0 0-2.601-2.594h-.65a2.6 2.6 0 0 0-2.602 2.596v2.813a2.598 2.598 0 0 0 2.603 2.596h.214c.495 0 .888-.087 1.315-.325 0 .896-.68 1.281-1.31 1.294-1.068.022-1.571-.593-1.673-.674-.102-.082-.211-.116-.34 0l-.593.652a.342.342 0 0 0-.014.477s.924.964 2.4.953h.22c1.945.007 3.019-1.3 3.026-3.405.005-1.77-.006-3.393-.007-3.912.008-.275.016-.472.016-.708zm-1.738.238c0-.596-.485-1.08-1.084-1.08h-.216c-.599 0-1.084.487-1.084 1.08v2.817c0 .596.485 1.08 1.084 1.08h.216c.6 0 1.084-.487 1.084-1.08v-2.817zm7.803 5.192c1.558 0 2.82-1.259 2.82-2.812a2.81 2.81 0 0 0-1.408-2.435 2.592 2.592 0 0 0 1.083-2.108 2.598 2.598 0 0 0-2.601-2.596H69.78a.433.433 0 0 0-.433.434v9.083c0 .24.194.434.433.434h3.685zm-.216-4.11c.659 0 1.193.534 1.193 1.19 0 .657-.536 1.19-1.193 1.19h-2.08a.086.086 0 0 1-.088-.085v-2.21c0-.047.038-.085.088-.085h2.08zm-.326-4.327a1.3 1.3 0 0 1 1.302 1.298 1.3 1.3 0 0 1-1.302 1.298h-1.753a.087.087 0 0 1-.089-.086v-2.423c0-.048.039-.087.09-.087h1.752zm4.663 3.245a2.598 2.598 0 0 1 2.601-2.596h.65a2.6 2.6 0 0 1 2.602 2.596v2.813A2.598 2.598 0 0 1 80.84 21.6h-.65a2.6 2.6 0 0 1-2.602-2.596v-2.813zm1.734-.002c0-.596.486-1.08 1.084-1.08h.217c.599 0 1.084.487 1.084 1.08v2.817c0 .596-.485 1.08-1.084 1.08h-.217a1.084 1.084 0 0 1-1.084-1.08V16.19zm5.204.002a2.598 2.598 0 0 1 2.601-2.596h.65a2.6 2.6 0 0 1 2.602 2.596v2.813a2.598 2.598 0 0 1-2.601 2.596h-.651a2.6 2.6 0 0 1-2.601-2.596v-2.813zm1.712-.002c0-.596.486-1.08 1.084-1.08h.217c.599 0 1.084.487 1.084 1.08v2.817c0 .596-.485 1.08-1.084 1.08h-.217a1.084 1.084 0 0 1-1.084-1.08V16.19zm9.858 4.93c.078.093.236.266.355.266h1.519c.206 0 .256-.236.177-.337l-3.122-3.768c1.576-1.013 2.259-2.962 2.288-3.138.029-.176-.037-.32-.274-.32h-1.12c-.313 0-.324.244-.425.419-.1.175-.47 1.49-2.077 2.249v-4.84a.433.433 0 0 0-.434-.433h-.867c-.287 0-.434.215-.434.433v9.303c0 .24.195.432.434.432h.868a.431.431 0 0 0 .433-.432V17.93l2.679 3.191zM.008 21.941a.92.92 0 0 1-.008-.12V10.74a.91.91 0 0 1 .032-.236A1.826 1.826 0 0 1 2.59 9.184l4.907 2.534h-.003c.016-.01.13-.085.173-.108l4.716-2.443a1.826 1.826 0 0 1 2.59 1.605v11.082a.9.9 0 0 1-.031.237 1.825 1.825 0 0 1-2.559 1.32L7.48 20.876c-.016.01-.13.083-.174.107l-4.715 2.443A1.826 1.826 0 0 1 .008 21.94m2.338-.45l4.235-2.2a1.417 1.417 0 0 0 .468-1.921l.003-.002-.623-1.097a3.227 3.227 0 0 1-.21-3.163l.007.003-3.88-1.99a.377.377 0 0 0-.52.349V21.14a.377.377 0 0 0 .52.35m10.802-.367v-1.191h.001v-8.48a.377.377 0 0 0-.52-.35l-4.235 2.2a1.417 1.417 0 0 0-.468 1.921l-.003.002.622 1.097c.316.481.506 1.052.525 1.667a3.218 3.218 0 0 1-.315 1.497l3.874 1.986a.378.378 0 0 0 .52-.35"/>
        <text font-family="Verdana" font-size="8" letter-spacing=".075" transform="translate(0 -2)">
            <tspan x="48" y="8">MADE WITH</tspan>
        </text>
    </g>
</svg>
